<?xml version="1.0" encoding="iso-8859-1"?>
<!-- Generator: Adobe Illustrator 18.0.0, SVG Export Plug-In . SVG Version: 6.00 Build 0)  -->
<!DOCTYPE svg PUBLIC "-//W3C//DTD SVG 1.1//EN" "http://www.w3.org/Graphics/SVG/1.1/DTD/svg11.dtd">
<svg version="1.1" id="&#x56FE;&#x5C42;_1" xmlns="http://www.w3.org/2000/svg" xmlns:xlink="http://www.w3.org/1999/xlink" x="0px"
	 y="0px" viewBox="0 0 50 50" style="enable-background:new 0 0 50 50;" xml:space="preserve">
<g>
	<g>
		<g>
			<path style="fill:#FFFFFF;" d="M17.488,17.226c-1.506,0-2.461,1.679-2.687,1.679c-0.198,0-1.114-1.679-2.688-1.679
				c-1.53,0-2.78,1.262-2.862,2.791c-0.046,0.863,0.232,1.52,0.625,2.116c0.783,1.189,4.21,4.052,4.931,4.052
				c0.736,0,4.132-2.852,4.92-4.052c0.393-0.598,0.671-1.253,0.624-2.116C20.269,18.489,19.019,17.226,17.488,17.226z"/>
		</g>
		<g>
			<path style="fill:#FFFFFF;" d="M37.887,17.226c-1.506,0-2.461,1.679-2.687,1.679c-0.198,0-1.114-1.679-2.688-1.679
				c-1.531,0-2.781,1.262-2.862,2.791c-0.046,0.863,0.232,1.52,0.624,2.116c0.784,1.189,4.21,4.052,4.931,4.052
				c0.736,0,4.132-2.852,4.92-4.052c0.393-0.598,0.671-1.253,0.624-2.116C40.668,18.489,39.418,17.226,37.887,17.226z"/>
		</g>
	</g>
	<g>
		<path style="fill:#FFFFFF;" d="M25,50C11.215,50,0,38.785,0,25S11.215,0,25,0s25,11.215,25,25S38.785,50,25,50z M25,3.226
			C12.994,3.226,3.226,12.994,3.226,25S12.994,46.774,25,46.774S46.774,37.006,46.774,25C46.774,12.994,37.006,3.226,25,3.226z"/>
	</g>
	<g>
		<path style="fill:#FFFFFF;" d="M25.097,31.782c3.855,0,7.289,2.431,10.048,4.385c0.28,0.198,0.555,0.393,0.824,0.581
			c0.731,0.51,0.91,1.515,0.4,2.246s-1.515,0.91-2.246,0.4c-0.275-0.192-0.556-0.391-0.843-0.594
			c-2.51-1.777-5.355-3.791-8.184-3.791c-2.975,0-5.93,2.141-8.537,4.029c-0.226,0.164-0.448,0.324-0.666,0.481
			c-0.724,0.52-1.732,0.354-2.251-0.37c-0.52-0.724-0.354-1.732,0.37-2.251c0.215-0.154,0.433-0.312,0.655-0.473
			C17.523,34.356,21.076,31.782,25.097,31.782z"/>
	</g>
</g>
</svg>
