<?xml version="1.0" encoding="iso-8859-1"?>
<!-- Generator: Adobe Illustrator 18.0.0, SVG Export Plug-In . SVG Version: 6.00 Build 0)  -->
<!DOCTYPE svg PUBLIC "-//W3C//DTD SVG 1.1//EN" "http://www.w3.org/Graphics/SVG/1.1/DTD/svg11.dtd">
<svg version="1.1" id="&#x56FE;&#x5C42;_1" xmlns="http://www.w3.org/2000/svg" xmlns:xlink="http://www.w3.org/1999/xlink" x="0px"
	 y="0px" viewBox="0 0 50 50" style="enable-background:new 0 0 50 50;" xml:space="preserve">
<g>
	<g>
		<g>
			<path style="fill:#FFFFFF;" d="M17.488,17.226c-1.506,0-2.461,1.679-2.688,1.679c-0.198,0-1.115-1.679-2.689-1.679
				c-1.53,0-2.781,1.262-2.862,2.791c-0.047,0.863,0.233,1.52,0.624,2.116c0.783,1.189,4.21,4.052,4.93,4.052
				c0.735,0,4.132-2.852,4.92-4.052c0.393-0.598,0.671-1.252,0.624-2.116C20.269,18.488,19.019,17.226,17.488,17.226z"/>
		</g>
		<g>
			<path style="fill:#FFFFFF;" d="M37.887,17.226c-1.506,0-2.461,1.679-2.688,1.679c-0.198,0-1.115-1.679-2.688-1.679
				c-1.53,0-2.781,1.262-2.863,2.791c-0.047,0.863,0.232,1.52,0.624,2.116c0.784,1.189,4.21,4.052,4.931,4.052
				c0.736,0,4.132-2.852,4.92-4.052c0.393-0.598,0.671-1.252,0.624-2.116C40.669,18.488,39.418,17.226,37.887,17.226z"/>
		</g>
	</g>
	<g>
		<path style="fill:#FFFFFF;" d="M25,50C11.215,50,0,38.785,0,25.001S11.215,0,25,0s25,11.215,25,24.999S38.785,50,25,50z M25,3.227
			c-12.006,0-21.774,9.767-21.774,21.774c0,12.006,9.768,21.774,21.774,21.774c12.007,0,21.774-9.767,21.774-21.774
			S37.007,3.227,25,3.227z"/>
	</g>
	<g>
		<path style="fill:#FFFFFF;" d="M24.903,41.297c-3.855,0-7.289-2.431-10.049-4.385c-0.28-0.198-0.555-0.392-0.824-0.581
			c-0.731-0.51-0.91-1.515-0.401-2.246s1.515-0.909,2.246-0.401c0.275,0.192,0.556,0.391,0.843,0.594
			c2.511,1.777,5.355,3.791,8.184,3.791c2.975,0,5.931-2.14,8.537-4.029c0.226-0.164,0.448-0.325,0.667-0.481
			c0.724-0.52,1.732-0.354,2.252,0.369c0.52,0.723,0.354,1.732-0.369,2.252c-0.214,0.154-0.433,0.313-0.655,0.473
			C32.477,38.723,28.924,41.297,24.903,41.297z"/>
	</g>
</g>
</svg>
