<?xml version="1.0" encoding="iso-8859-1"?>
<!-- Generator: Adobe Illustrator 18.0.0, SVG Export Plug-In . SVG Version: 6.00 Build 0)  -->
<!DOCTYPE svg PUBLIC "-//W3C//DTD SVG 1.1//EN" "http://www.w3.org/Graphics/SVG/1.1/DTD/svg11.dtd">
<svg version="1.1" id="&#x56FE;&#x5C42;_1" xmlns="http://www.w3.org/2000/svg" xmlns:xlink="http://www.w3.org/1999/xlink" x="0px"
	 y="0px" viewBox="0 0 50 50" style="enable-background:new 0 0 50 50;" xml:space="preserve">
<g>
	<path style="fill-rule:evenodd;clip-rule:evenodd;fill:#FFFFFF;" d="M47.847,43.673c-0.648-0.37-1.283-0.776-1.957-1.095
		c-3.62-1.694-7.22-3.431-10.894-5.013c-1.359-0.586-1.97-1.604-2.179-2.86c-0.152-0.89-0.333-1.503-1.3-1.549
		c-0.319-2.019-0.356-1.493,0.482-6.107c0.836-4.615,0.852-2.372,2.423-5.861c0.904-2.782,0.834-3.128-0.297-2.759
		c-0.186-0.203-0.136-0.668-0.116-1.007c0.095-1.93,0.185-3.866,0.345-5.79c0.123-1.464-0.362-2.651-1.331-3.72
		c-0.328-0.363-1.156-1.349-1.156-1.349l-0.299-2.799c-1.488,1.594-6.241,1.734-6.241,1.734s-4.292,0.42-6.19,0.962
		c-2.746,0.787-3.954,2.569-3.816,5.376c0.09,1.842,0.453,4.714,0.524,6.557c0.013,0.376-0.42-0.456-0.856-0.137
		c-0.436,0.319,0.152,2.402,0.81,3.549c1.101,2.263,1.146,1.142,1.763,5.567c1.104,6.008,0.904,3.76,0.583,5.785
		c-0.955,0.049-1.15,0.661-1.297,1.554c-0.206,1.262-0.819,2.264-2.171,2.864c-4.174,1.859-8.283,3.855-12.399,5.831
		c-1.309,0.632-2.234,1.585-2.016,3.21c8.189,0,16.376,0,24.564,0l-3.65-6.153l-3.507-6.237l5.725,1.349l1.451,0.418l7.132-1.768
		l-3.504,6.237l-3.648,6.153c8.186,0,16.374,0,24.559,0C49.563,45.271,48.988,44.322,47.847,43.673z"/>
	<polygon style="fill-rule:evenodd;clip-rule:evenodd;fill:#FFFFFF;" points="23.082,37.614 24.826,46.546 26.569,37.614 
		24.826,35.994 	"/>
</g>
</svg>
